<svg width="1200" height="320" viewBox="0 0 1200 320" fill="none" xmlns="http://www.w3.org/2000/svg">
  <defs>
    <linearGradient id="bg" x1="0" y1="0" x2="1200" y2="320" gradientUnits="userSpaceOnUse">
      <stop stop-color="#0B1220"/>
      <stop offset="1" stop-color="#111827"/>
    </linearGradient>
    <linearGradient id="accent" x1="120" y1="64" x2="1030" y2="250" gradientUnits="userSpaceOnUse">
      <stop stop-color="#F59E0B"/>
      <stop offset="0.5" stop-color="#F97316"/>
      <stop offset="1" stop-color="#FB7185"/>
    </linearGradient>
    <linearGradient id="line" x1="0" y1="0" x2="1" y2="1">
      <stop stop-color="#FBBF24" stop-opacity="0.7"/>
      <stop offset="1" stop-color="#F97316" stop-opacity="0.15"/>
    </linearGradient>
    <filter id="glow" x="-20%" y="-20%" width="140%" height="140%">
      <feGaussianBlur stdDeviation="10" result="blur"/>
      <feMerge>
        <feMergeNode in="blur"/>
        <feMergeNode in="SourceGraphic"/>
      </feMerge>
    </filter>
  </defs>

  <rect width="1200" height="320" rx="24" fill="url(#bg)"/>

  <g opacity="0.12">
    <path d="M70 55H1130" stroke="#94A3B8"/>
    <path d="M70 110H1130" stroke="#94A3B8"/>
    <path d="M70 165H1130" stroke="#94A3B8"/>
    <path d="M70 220H1130" stroke="#94A3B8"/>
    <path d="M70 275H1130" stroke="#94A3B8"/>
    <path d="M120 35V285" stroke="#94A3B8"/>
    <path d="M260 35V285" stroke="#94A3B8"/>
    <path d="M400 35V285" stroke="#94A3B8"/>
    <path d="M540 35V285" stroke="#94A3B8"/>
    <path d="M680 35V285" stroke="#94A3B8"/>
    <path d="M820 35V285" stroke="#94A3B8"/>
    <path d="M960 35V285" stroke="#94A3B8"/>
    <path d="M1100 35V285" stroke="#94A3B8"/>
  </g>

  <g opacity="0.9">
    <path d="M116 222H235V182H314V138H408V170H501V110H588V154H672V108H756V146H847V96H937V135H1018V84H1080" stroke="url(#line)" stroke-width="4" stroke-linecap="round" stroke-linejoin="round"/>
    <circle cx="116" cy="222" r="6" fill="#FBBF24"/>
    <circle cx="235" cy="182" r="6" fill="#F59E0B"/>
    <circle cx="314" cy="138" r="6" fill="#F97316"/>
    <circle cx="408" cy="170" r="6" fill="#FBBF24"/>
    <circle cx="501" cy="110" r="6" fill="#FB7185"/>
    <circle cx="588" cy="154" r="6" fill="#F59E0B"/>
    <circle cx="672" cy="108" r="6" fill="#FBBF24"/>
    <circle cx="756" cy="146" r="6" fill="#F97316"/>
    <circle cx="847" cy="96" r="6" fill="#FB7185"/>
    <circle cx="937" cy="135" r="6" fill="#FBBF24"/>
    <circle cx="1018" cy="84" r="6" fill="#F59E0B"/>
  </g>

  <g filter="url(#glow)">
    <rect x="90" y="72" width="190" height="36" rx="18" fill="#111827" stroke="#374151"/>
    <circle cx="116" cy="90" r="6" fill="#FBBF24"/>
    <circle cx="138" cy="90" r="6" fill="#F97316"/>
    <circle cx="160" cy="90" r="6" fill="#FB7185"/>
    <text x="182" y="96" fill="#E5E7EB" font-family="Consolas, Menlo, monospace" font-size="18">symbol-memory</text>
  </g>

  <text x="90" y="170" fill="url(#accent)" font-family="Segoe UI, Arial, sans-serif" font-size="72" font-weight="800" letter-spacing="4">SYMBOL MEMORY</text>
  <text x="94" y="213" fill="#E5E7EB" font-family="Segoe UI, Arial, sans-serif" font-size="24" font-weight="600">Explicit symbol graph for Python codebases, agents, and tools</text>
  <text x="94" y="246" fill="#94A3B8" font-family="Segoe UI, Arial, sans-serif" font-size="18">Manual semantics. AST structure. Fast id-based navigation.</text>

  <g opacity="0.95">
    <rect x="850" y="176" width="250" height="72" rx="18" fill="#0F172A" stroke="#334155"/>
    <text x="876" y="206" fill="#F8FAFC" font-family="Segoe UI, Arial, sans-serif" font-size="18" font-weight="700">Build Once</text>
    <text x="876" y="230" fill="#94A3B8" font-family="Segoe UI, Arial, sans-serif" font-size="16">Query exact symbols, cards,</text>
    <text x="876" y="250" fill="#94A3B8" font-family="Segoe UI, Arial, sans-serif" font-size="16">relations, and source ranges.</text>
  </g>

  <g opacity="0.95">
    <rect x="865" y="66" width="220" height="58" rx="16" fill="#111827" stroke="#374151"/>
    <text x="892" y="102" fill="#FBBF24" font-family="Consolas, Menlo, monospace" font-size="22" font-weight="700">@symbol(7, r=[2,4,6])</text>
  </g>
</svg>
